<svg xmlns="http://www.w3.org/2000/svg" width="800" height="300" viewBox="0 0 800 300">
  <defs>
    <linearGradient id="bg" x1="0%" y1="0%" x2="100%" y2="100%">
      <stop offset="0%" style="stop-color:#667eea"/>
      <stop offset="100%" style="stop-color:#764ba2"/>
    </linearGradient>
  </defs>
  <!-- Background -->
  <rect width="800" height="300" fill="url(#bg)" rx="12"/>
  <!-- Title -->
  <text x="400" y="40" text-anchor="middle" fill="white" font-family="Arial" font-size="20" font-weight="bold">Simulador de Algoritmos de Memoria 2026</text>
  <!-- Memory cells row 1 -->
  <rect x="30" y="65" width="42" height="40" rx="6" fill="#FF6B6B"/>
  <text x="51" y="91" text-anchor="middle" fill="white" font-family="Arial" font-size="11" font-weight="bold">P1</text>
  <rect x="76" y="65" width="42" height="40" rx="6" fill="#FF6B6B"/>
  <text x="97" y="91" text-anchor="middle" fill="white" font-family="Arial" font-size="11" font-weight="bold">P1</text>
  <rect x="122" y="65" width="42" height="40" rx="6" fill="#FF6B6B"/>
  <text x="143" y="91" text-anchor="middle" fill="white" font-family="Arial" font-size="11" font-weight="bold">P1</text>
  <rect x="168" y="65" width="42" height="40" rx="6" fill="#e0e7ff" stroke="#667eea" stroke-width="2" stroke-dasharray="4"/>
  <text x="189" y="91" text-anchor="middle" fill="#667eea" font-family="Arial" font-size="14">□</text>
  <rect x="214" y="65" width="42" height="40" rx="6" fill="#4ECDC4"/>
  <text x="235" y="91" text-anchor="middle" fill="white" font-family="Arial" font-size="11" font-weight="bold">P2</text>
  <rect x="260" y="65" width="42" height="40" rx="6" fill="#4ECDC4"/>
  <text x="281" y="91" text-anchor="middle" fill="white" font-family="Arial" font-size="11" font-weight="bold">P2</text>
  <rect x="306" y="65" width="42" height="40" rx="6" fill="#e0e7ff" stroke="#667eea" stroke-width="2" stroke-dasharray="4"/>
  <text x="327" y="91" text-anchor="middle" fill="#667eea" font-family="Arial" font-size="14">□</text>
  <rect x="352" y="65" width="42" height="40" rx="6" fill="#45B7D1"/>
  <text x="373" y="91" text-anchor="middle" fill="white" font-family="Arial" font-size="11" font-weight="bold">P3</text>
  <rect x="398" y="65" width="42" height="40" rx="6" fill="#45B7D1"/>
  <text x="419" y="91" text-anchor="middle" fill="white" font-family="Arial" font-size="11" font-weight="bold">P3</text>
  <rect x="444" y="65" width="42" height="40" rx="6" fill="#45B7D1"/>
  <text x="465" y="91" text-anchor="middle" fill="white" font-family="Arial" font-size="11" font-weight="bold">P3</text>
  <rect x="490" y="65" width="42" height="40" rx="6" fill="#e0e7ff" stroke="#667eea" stroke-width="2" stroke-dasharray="4"/>
  <text x="511" y="91" text-anchor="middle" fill="#667eea" font-family="Arial" font-size="14">□</text>
  <rect x="536" y="65" width="42" height="40" rx="6" fill="#96CEB4"/>
  <text x="557" y="91" text-anchor="middle" fill="white" font-family="Arial" font-size="11" font-weight="bold">P4</text>
  <rect x="582" y="65" width="42" height="40" rx="6" fill="#FFEAA7"/>
  <text x="603" y="91" text-anchor="middle" fill="#666" font-family="Arial" font-size="11" font-weight="bold">P5</text>
  <rect x="628" y="65" width="42" height="40" rx="6" fill="#FFEAA7"/>
  <text x="649" y="91" text-anchor="middle" fill="#666" font-family="Arial" font-size="11" font-weight="bold">P5</text>
  <rect x="674" y="65" width="42" height="40" rx="6" fill="#e0e7ff" stroke="#667eea" stroke-width="2" stroke-dasharray="4"/>
  <text x="695" y="91" text-anchor="middle" fill="#667eea" font-family="Arial" font-size="14">□</text>
  <rect x="720" y="65" width="42" height="40" rx="6" fill="#e0e7ff" stroke="#667eea" stroke-width="2" stroke-dasharray="4"/>
  <text x="741" y="91" text-anchor="middle" fill="#667eea" font-family="Arial" font-size="14">□</text>
  <!-- Stats panel -->
  <rect x="30" y="125" width="740" height="50" rx="10" fill="rgba(255,255,255,0.15)"/>
  <text x="50" y="155" fill="white" font-family="Arial" font-size="13" font-weight="bold">Peor Ajuste  |  Usado: 12/20 (60%)  |  Fragmentación: 4  |  Mayor bloque libre: 2</text>
  <!-- Process list -->
  <rect x="30" y="190" width="360" height="90" rx="10" fill="rgba(255,255,255,0.12)"/>
  <text x="50" y="212" fill="white" font-family="Arial" font-size="12" font-weight="bold">Procesos Activos:</text>
  <text x="50" y="232" fill="rgba(255,255,255,0.85)" font-family="Courier New" font-size="11">P1: 3 unidades</text>
  <text x="50" y="248" fill="rgba(255,255,255,0.85)" font-family="Courier New" font-size="11">P2: 2 unidades</text>
  <text x="50" y="264" fill="rgba(255,255,255,0.85)" font-family="Courier New" font-size="11">P3: 3 unidades  P4: 1  P5: 2</text>
  <!-- History panel -->
  <rect x="410" y="190" width="360" height="90" rx="10" fill="rgba(255,255,255,0.12)"/>
  <text x="430" y="212" fill="white" font-family="Arial" font-size="12" font-weight="bold">Historial:</text>
  <text x="430" y="232" fill="rgba(255,255,255,0.85)" font-family="Courier New" font-size="11">Asignado P1 (tamaño 3) en 0</text>
  <text x="430" y="248" fill="rgba(255,255,255,0.85)" font-family="Courier New" font-size="11">Asignado P2 (tamaño 2) en 4</text>
  <text x="430" y="264" fill="rgba(255,255,255,0.85)" font-family="Courier New" font-size="11">Asignado P3 (tamaño 3) en 7</text>
</svg>